{"title":"Transformers Trilogy 2007 - 2011 720p BDRip XviD ac3 (avi) [TFRG","uid":6720181,"size":11266695343,"categoryP":"video","categoryS":"hd___movies","magnet":"?xt=urn:btih:4c80e0136ebf769e0cd81b65600952392b524d41&amp;dn=Transformers+Trilogy+2007+-+2011+720p+BDRip+XviD+ac3+%28avi%29+%5BTFRG&amp;tr=udp%3A%2F%2Ftracker.openbittorrent.com%3A80&amp;tr=udp%3A%2F%2Fopen.demonii.com%3A1337&amp;tr=udp%3A%2F%2Ftracker.coppersurfer.tk%3A6969&amp;tr=udp%3A%2F%2Fexodus.desync.com%3A6969","seeders":0,"leechers":0,"uploader":"grey.shadow","files":15,"time":1317759955,"description":"***************************************************************\n &lt;a href=&quot;\nhttp://www.torrentforce.org/imghost/3/greyshadow_tfbanner.png&quot; rel=&quot;nofollow&quot; target=&quot;_NEW&quot;&gt;\nhttp://www.torrentforce.org/imghost/3/greyshadow_tfbanner.png&lt;/a&gt;\n\n***************************************************************\n &lt;a href=&quot;\nhttp://www.torrentforce.org/imghost/4/greyshadow_transformerstrilogy.jpg&quot; rel=&quot;nofollow&quot; target=&quot;_NEW&quot;&gt;\nhttp://www.torrentforce.org/imghost/4/greyshadow_transformerstrilogy.jpg&lt;/a&gt;\n\n***************************************************************\n***************************************************************\n***************************************************************\n &lt;a href=&quot;\nhttp://www.torrentforce.org/imghost/4/greyshadow_transformers1.jpg&quot; rel=&quot;nofollow&quot; target=&quot;_NEW&quot;&gt;\nhttp://www.torrentforce.org/imghost/4/greyshadow_transformers1.jpg&lt;/a&gt;\n\n***************************************************************\n\nFILM TITLE: Transformers (2007) \n\n***************************************************************\n\nGenre:  Action | Sci-Fi | Thriller    \n\nRated PG-13 for intense sequences of sci-fi action violence, \nbrief sexual humor, and language\n\nRelease:  27 July 2007 (UK)\n\nDirector: Michael Bay\n\nWriter: Roberto Orci (screenplay), Alex Kurtzman\n\nStars: Shia LaBeouf, Megan Fox and Josh Duhamel\n\nCountry: USA \n\nLanguage: English | Spanish\n\nPlot:\nAn ancient struggle re-erupts on Earth between two extraterrestrial \nclans, the heroic Autobots and the evil Decepticons, with a clue to \nthe ultimate power held by a young teenager.\n\nIMDB Rating: 7.2/10 from 239,508 users\n &lt;a href=&quot;\nhttp://www.imdb.com/title/tt0418279/&quot; rel=&quot;nofollow&quot; target=&quot;_NEW&quot;&gt;\nhttp://www.imdb.com/title/tt0418279/&lt;/a&gt; \n\n****************************************************************\n &lt;a href=&quot;\nhttp://www.torrentforce.org/imghost/4/greyshadow_transformers1xvid1.png&quot; rel=&quot;nofollow&quot; target=&quot;_NEW&quot;&gt;\nhttp://www.torrentforce.org/imghost/4/greyshadow_transformers1xvid1.png&lt;/a&gt; &lt;a href=&quot;\nhttp://www.torrentforce.org/imghost/4/greyshadow_transformers1xvid2.png&quot; rel=&quot;nofollow&quot; target=&quot;_NEW&quot;&gt;\nhttp://www.torrentforce.org/imghost/4/greyshadow_transformers1xvid2.png&lt;/a&gt; &lt;a href=&quot;\nhttp://www.torrentforce.org/imghost/4/greyshadow_transformers1xvid3.png&quot; rel=&quot;nofollow&quot; target=&quot;_NEW&quot;&gt;\nhttp://www.torrentforce.org/imghost/4/greyshadow_transformers1xvid3.png&lt;/a&gt; &lt;a href=&quot;\nhttp://www.torrentforce.org/imghost/4/greyshadow_transformers1xvid4.png&quot; rel=&quot;nofollow&quot; target=&quot;_NEW&quot;&gt;\nhttp://www.torrentforce.org/imghost/4/greyshadow_transformers1xvid4.png&lt;/a&gt;\n\n****************************************************************\n\n[IMG]http://www.torrentforce.org/imghost/2/greyshadow_mediainfo.png[/IMG]\nGeneral\nComplete name                    : (1) Transformers 2007 720p BDRip XviD ac3 (avi) [TFRG].avi\nFormat                           : AVI\nFormat/Info                      : Audio Video Interleave\nFormat profile                   : OpenDML\nFile size                        : 3.34 GiB\nDuration                         : 2h 23mn\nOverall bit rate                 : 3328 Kbps\nWriting library                  : VirtualDub build 32842/release\n\nVideo\nID                               : 0\nFormat                           : MPEG-4 Visual\nFormat profile                   : Simple@L5\nFormat settings, BVOP            : No\nFormat settings, QPel            : No\nFormat settings, GMC             : No warppoints\nFormat settings, Matrix          : Default (H.263)\nCodec ID                         : XVID\nCodec ID/Hint                    : XviD\nDuration                         : 2h 23mn\nBit rate                         : 2999 Kbps\nWidth                            : 1280 pixels\nHeight                           : 528 pixels\nDisplay aspect ratio             : 2.40:1\nFrame rate                       : 23.976 fps\nColor space                      : YUV\nChroma subsampling               : 4:2:0\nBit depth                        : 8 bits\nScan type                        : Progressive\nCompression mode                 : Lossy\nBits/(Pixel*Frame)               : 0.185\nStream size                      : 3.00 GiB (90%)\nWriting library                  : XviD 64\n\nAudio\nID                               : 1\nFormat                           : AC-3\nFormat/Info                      : Audio Coding 3\nMode extension                   : CM (complete main)\nCodec ID                         : 2000\nDuration                         : 2h 23mn\nBit rate mode                    : Constant\nBit rate                         : 320 Kbps\nChannel(s)                       : 6 channels\nChannel positions                : Front: L C R, Side: L R, LFE\nSampling rate                    : 48.0 KHz\nBit depth                        : 16 bits\nCompression mode                 : Lossy\nStream size                      : 328 MiB (10%)\nAlignment                        : Aligned on interleaves\nInterleave, duration             : 42 ms (1.00 video frame)\nInterleave, preload duration     : 512 ms\n\n****************************************************************\n\nVideo Source: Transformers 2007 1080p Blu-ray AVC TrueHD 5.1-KRaLiMaRKo (36.6GB)\n\nThanks: iptorrents\n\n****************************************************************\n****************************************************************\n****************************************************************\n &lt;a href=&quot;\nhttp://www.torrentforce.org/imghost/4/greyshadow_transformers2.jpg&quot; rel=&quot;nofollow&quot; target=&quot;_NEW&quot;&gt;\nhttp://www.torrentforce.org/imghost/4/greyshadow_transformers2.jpg&lt;/a&gt;\n\n***************************************************************\n\nFILM TITLE: Transformers: Revenge of the Fallen (2009)\n\n***************************************************************\n\nGenre: Action | Adventure | Sci-Fi    \n\nRated PG-13 for intense sequences of sci-fi action violence, \nlanguage, some crude and sexual material, and brief drug material\n\nRelease: 19 June 2009 (UK) \n\nDirector: Michael Bay\n\nWriter: Ehren Kruger, Roberto Orci\n\nStars: Shia LaBeouf, Megan Fox and Josh Duhamel \n\nCountry: USA\n\nLanguage: English | Spanish \n\nPlot:\nSam Witwicky leaves the Autobots behind for a normal life. But \nwhen his mind is filled with cryptic symbols, the Decepticons \ntarget him and he is dragged back into the Transformers' war.\n\nIMDB Rating: Ratings: 5.9/10 from 129,888 users\n &lt;a href=&quot;\nhttp://www.imdb.com/title/tt1055369/&quot; rel=&quot;nofollow&quot; target=&quot;_NEW&quot;&gt;\nhttp://www.imdb.com/title/tt1055369/&lt;/a&gt; \n\n****************************************************************\n &lt;a href=&quot;\nhttp://www.torrentforce.org/imghost/4/greyshadow_transformers2xvid1.png&quot; rel=&quot;nofollow&quot; target=&quot;_NEW&quot;&gt;\nhttp://www.torrentforce.org/imghost/4/greyshadow_transformers2xvid1.png&lt;/a&gt; &lt;a href=&quot;\nhttp://www.torrentforce.org/imghost/4/greyshadow_transformers2xvid2.png&quot; rel=&quot;nofollow&quot; target=&quot;_NEW&quot;&gt;\nhttp://www.torrentforce.org/imghost/4/greyshadow_transformers2xvid2.png&lt;/a&gt; &lt;a href=&quot;\nhttp://www.torrentforce.org/imghost/4/greyshadow_transformers2xvid3.png&quot; rel=&quot;nofollow&quot; target=&quot;_NEW&quot;&gt;\nhttp://www.torrentforce.org/imghost/4/greyshadow_transformers2xvid3.png&lt;/a&gt; &lt;a href=&quot;\nhttp://www.torrentforce.org/imghost/4/greyshadow_transformers2xvid4.png&quot; rel=&quot;nofollow&quot; target=&quot;_NEW&quot;&gt;\nhttp://www.torrentforce.org/imghost/4/greyshadow_transformers2xvid4.png&lt;/a&gt;\n\n****************************************************************\n\n[IMG]http://www.torrentforce.org/imghost/2/greyshadow_mediainfo.png[/IMG]\nGeneral\nComplete name                    : (2) Transformers-Revenge Of The Fallen 2009 720p BDRip XviD ac3 (avi) [TFRG].avi\nFormat                           : AVI\nFormat/Info                      : Audio Video Interleave\nFormat profile                   : OpenDML\nFile size                        : 3.50 GiB\nDuration                         : 2h 30mn\nOverall bit rate                 : 3329 Kbps\nWriting library                  : VirtualDub build 32842/release\n\nVideo\nID                               : 0\nFormat                           : MPEG-4 Visual\nFormat profile                   : Simple@L5\nFormat settings, BVOP            : No\nFormat settings, QPel            : No\nFormat settings, GMC             : No warppoints\nFormat settings, Matrix          : Default (H.263)\nCodec ID                         : XVID\nCodec ID/Hint                    : XviD\nDuration                         : 2h 30mn\nBit rate                         : 2999 Kbps\nWidth                            : 1280 pixels\nHeight                           : 528 pixels\nDisplay aspect ratio             : 2.40:1\nFrame rate                       : 23.976 fps\nColor space                      : YUV\nChroma subsampling               : 4:2:0\nBit depth                        : 8 bits\nScan type                        : Progressive\nCompression mode                 : Lossy\nBits/(Pixel*Frame)               : 0.185\nStream size                      : 3.15 GiB (90%)\nWriting library                  : XviD 64\n\nAudio\nID                               : 1\nFormat                           : AC-3\nFormat/Info                      : Audio Coding 3\nMode extension                   : CM (complete main)\nCodec ID                         : 2000\nDuration                         : 2h 30mn\nBit rate mode                    : Constant\nBit rate                         : 320 Kbps\nChannel(s)                       : 6 channels\nChannel positions                : Front: L C R, Side: L R, LFE\nSampling rate                    : 48.0 KHz\nBit depth                        : 16 bits\nCompression mode                 : Lossy\nStream size                      : 344 MiB (10%)\nAlignment                        : Aligned on interleaves\nInterleave, duration             : 42 ms (1.00 video frame)\nInterleave, preload duration     : 512 ms\n\n****************************************************************\n\nVideo Source: Transformers Revenge Of The Fallen 2009 IMAX 1080p Blu-ray Remux AVC DTS-HD MA5.1-KRaLiMaRKo (37.7GB)\n\nThanks: iptorrents \n\n****************************************************************\n****************************************************************\n***************************************************************\n &lt;a href=&quot;\nhttp://www.torrentforce.org/imghost/4/greyshadow_transformers3.jpg&quot; rel=&quot;nofollow&quot; target=&quot;_NEW&quot;&gt;\nhttp://www.torrentforce.org/imghost/4/greyshadow_transformers3.jpg&lt;/a&gt;\n\n***************************************************************\n\nFILM TITLE: Transformers: Dark of the Moon (2011)\n\n***************************************************************\n\nGenre: Action | Adventure | Sci-Fi   \n\nRelease: 29 June 2011 (UK)\n\nDirector: Michael Bay\n\nWriter: Ehren Kruger\n\nStars: Shia LaBeouf, Rosie Huntington-Whiteley and Tyrese Gibson\n\nCountry: USA\n\nLanguage: English \n\nPlot:\nThe Autobots learn of a Cybertronian spacecraft hidden on the Moon, and race against the Decepticons to reach it and to learn \n\nits secrets.\n\nIMDB Rating: IMDB Rating: 6.6/10 (76,529 votes)\n &lt;a href=&quot;\nhttp://www.imdb.com/title/tt1399103/&quot; rel=&quot;nofollow&quot; target=&quot;_NEW&quot;&gt;\nhttp://www.imdb.com/title/tt1399103/&lt;/a&gt; \n\n****************************************************************\n &lt;a href=&quot;\nhttp://www.torrentforce.org/imghost/4/greyshadow_transformers3xvid1.png&quot; rel=&quot;nofollow&quot; target=&quot;_NEW&quot;&gt;\nhttp://www.torrentforce.org/imghost/4/greyshadow_transformers3xvid1.png&lt;/a&gt; &lt;a href=&quot;\nhttp://www.torrentforce.org/imghost/4/greyshadow_transformers3xvid2.png&quot; rel=&quot;nofollow&quot; target=&quot;_NEW&quot;&gt;\nhttp://www.torrentforce.org/imghost/4/greyshadow_transformers3xvid2.png&lt;/a&gt; &lt;a href=&quot;\nhttp://www.torrentforce.org/imghost/4/greyshadow_transformers3xvid3.png&quot; rel=&quot;nofollow&quot; target=&quot;_NEW&quot;&gt;\nhttp://www.torrentforce.org/imghost/4/greyshadow_transformers3xvid3.png&lt;/a&gt; &lt;a href=&quot;\nhttp://www.torrentforce.org/imghost/4/greyshadow_transformers3xvid4.png&quot; rel=&quot;nofollow&quot; target=&quot;_NEW&quot;&gt;\nhttp://www.torrentforce.org/imghost/4/greyshadow_transformers3xvid4.png&lt;/a&gt;\n\n****************************************************************\n\n[IMG]http://www.torrentforce.org/imghost/2/greyshadow_mediainfo.png[/IMG]\nGeneral\nComplete name                    : (3) Transformers-Dark Of The Moon 2011 720p BDRip XviD ac3 (avi) [TFRG].avi\nFormat                           : AVI\nFormat/Info                      : Audio Video Interleave\nFormat profile                   : OpenDML\nFile size                        : 3.59 GiB\nDuration                         : 2h 34mn\nOverall bit rate                 : 3328 Kbps\nWriting library                  : VirtualDub build 32842/release\n\nVideo\nID                               : 0\nFormat                           : MPEG-4 Visual\nFormat profile                   : Simple@L5\nFormat settings, BVOP            : No\nFormat settings, QPel            : No\nFormat settings, GMC             : No warppoints\nFormat settings, Matrix          : Default (H.263)\nCodec ID                         : XVID\nCodec ID/Hint                    : XviD\nDuration                         : 2h 34mn\nBit rate                         : 2999 Kbps\nWidth                            : 1280 pixels\nHeight                           : 528 pixels\nDisplay aspect ratio             : 2.40:1\nFrame rate                       : 23.976 fps\nColor space                      : YUV\nChroma subsampling               : 4:2:0\nBit depth                        : 8 bits\nScan type                        : Progressive\nCompression mode                 : Lossy\nBits/(Pixel*Frame)               : 0.185\nStream size                      : 3.23 GiB (90%)\nWriting library                  : XviD 64\n\nAudio\nID                               : 1\nFormat                           : AC-3\nFormat/Info                      : Audio Coding 3\nMode extension                   : CM (complete main)\nCodec ID                         : 2000\nDuration                         : 2h 34mn\nBit rate mode                    : Constant\nBit rate                         : 320 Kbps\nChannel(s)                       : 6 channels\nChannel positions                : Front: L C R, Side: L R, LFE\nSampling rate                    : 48.0 KHz\nBit depth                        : 16 bits\nCompression mode                 : Lossy\nStream size                      : 353 MiB (10%)\nAlignment                        : Aligned on interleaves\nInterleave, duration             : 42 ms (1.00 video frame)\nInterleave, preload duration     : 512 ms\n\n****************************************************************\n\nVideo Source: Transformers:Dark Of The Moon 2011 BluRay 1080p AVC TrueHD7.1-CHDBits (43GB)\n\nThanks: CHP (chdbits.org)\n\n****************************************************************\n\nI provide a small sample, so please download this to check your \ncompatibility first if you are unsure.\n\n****************************************************************\n\nA big thanks to all the sites out there who care and share and\nwho make it possible for you to download this torrent for free.\n\nGreetz to Westy, Ripwyn, mustang, noir, Blackjesus, MXMG, The Stig \nand all the other outstanding members of our community of file \nsharers and a special mention to our friends at 1337x.\n\n****************************************************************\n\n[IMG]http://www.torrentforce.org/imghost/3/greyshadow_GreyShadow2sig.png[/IMG]\n\n****************************************************************","torrent":{"xt":"urn:btih:4c80e0136ebf769e0cd81b65600952392b524d41","amp;dn":"Transformers+Trilogy+2007+-+2011+720p+BDRip+XviD+ac3+%28avi%29+%5BTFRG","amp;tr":["udp%3A%2F%2Ftracker.openbittorrent.com%3A80","udp%3A%2F%2Fopen.demonii.com%3A1337","udp%3A%2F%2Ftracker.coppersurfer.tk%3A6969","udp%3A%2F%2Fexodus.desync.com%3A6969"],"infoHash":"4c80e0136ebf769e0cd81b65600952392b524d41","infoHashBuffer":{"type":"Buffer","data":[76,128,224,19,110,191,118,158,12,216,27,101,96,9,82,57,43,82,77,65]},"announce":[],"urlList":[]}}